<mxfile host="Electron" modified="2024-07-12T19:31:38.798Z" agent="Mozilla/5.0 (Windows NT 10.0; Win64; x64) AppleWebKit/537.36 (KHTML, like Gecko) draw.io/24.6.4 Chrome/124.0.6367.207 Electron/30.0.6 Safari/537.36" etag="4WhsQC0BGcGgUXwuzmWh" version="24.6.4" type="device">
  <diagram name="Page-1" id="zyYSqaqRnLiy_2DEfETd">
    <mxGraphModel dx="1195" dy="697" grid="1" gridSize="10" guides="1" tooltips="1" connect="1" arrows="1" fold="1" page="1" pageScale="1" pageWidth="827" pageHeight="1169" math="0" shadow="0">
      <root>
        <mxCell id="0" />
        <mxCell id="1" parent="0" />
        <mxCell id="Sa1nmGpwk2C1WZBEfPNs-1" value="" style="rounded=0;whiteSpace=wrap;html=1;fillColor=default;" vertex="1" parent="1">
          <mxGeometry y="280" width="800" height="600" as="geometry" />
        </mxCell>
        <mxCell id="Sa1nmGpwk2C1WZBEfPNs-3" value="Picture" style="ellipse;whiteSpace=wrap;html=1;aspect=fixed;" vertex="1" parent="1">
          <mxGeometry x="301.25" y="362.5" width="197.5" height="197.5" as="geometry" />
        </mxCell>
        <mxCell id="Sa1nmGpwk2C1WZBEfPNs-5" value="Github" style="rounded=0;whiteSpace=wrap;html=1;" vertex="1" parent="1">
          <mxGeometry x="270" y="690" width="120" height="20" as="geometry" />
        </mxCell>
        <mxCell id="Sa1nmGpwk2C1WZBEfPNs-4" value="" style="ellipse;whiteSpace=wrap;html=1;aspect=fixed;" vertex="1" parent="1">
          <mxGeometry x="220" y="680" width="40" height="40" as="geometry" />
        </mxCell>
        <mxCell id="Sa1nmGpwk2C1WZBEfPNs-6" value="" style="ellipse;whiteSpace=wrap;html=1;aspect=fixed;" vertex="1" parent="1">
          <mxGeometry x="400" y="680" width="40" height="40" as="geometry" />
        </mxCell>
        <mxCell id="Sa1nmGpwk2C1WZBEfPNs-7" value="LinkedIn" style="rounded=0;whiteSpace=wrap;html=1;" vertex="1" parent="1">
          <mxGeometry x="450" y="690" width="120" height="20" as="geometry" />
        </mxCell>
        <mxCell id="Sa1nmGpwk2C1WZBEfPNs-8" value="Alex Henderson&lt;div&gt;Aerospace Engineer&lt;/div&gt;" style="rounded=0;whiteSpace=wrap;html=1;" vertex="1" parent="1">
          <mxGeometry x="295" y="590" width="210" height="60" as="geometry" />
        </mxCell>
      </root>
    </mxGraphModel>
  </diagram>
</mxfile>
